HIERARCHY
ROOT Hips
{
  OFFSET 0.0 0.0 0.0
  CHANNELS 6 Xposition Yposition Zposition Zrotation Yrotation Xrotation
  JOINT LHipJoint
  {
    OFFSET 0.0 0.0 0.0
    CHANNELS 3 Zrotation Yrotation Xrotation
    JOINT LeftUpLeg
    {
      OFFSET 1.363059998 -1.794630051 0.839290023
      CHANNELS 3 Zrotation Yrotation Xrotation
      JOINT LeftLeg
      {
        OFFSET 2.448110104 -6.726130009 0.0
        CHANNELS 3 Zrotation Yrotation Xrotation
        JOINT LeftFoot
        {
          OFFSET 2.562200069 -7.039589882 0.0
          CHANNELS 3 Zrotation Yrotation Xrotation
          JOINT LeftToeBase
          {
            OFFSET 0.157639995 -0.433109999 2.322550058
            CHANNELS 3 Zrotation Yrotation Xrotation
            End Site
            {
              OFFSET 0.0 -0.0 1.189659953
            }
          }
        }
      }
    }
  }
  JOINT RHipJoint
  {
    OFFSET 0.0 0.0 0.0
    CHANNELS 3 Zrotation Yrotation Xrotation
    JOINT RightUpLeg
    {
      OFFSET -1.305520058 -1.794630051 0.839290023
      CHANNELS 3 Zrotation Yrotation Xrotation
      JOINT RightLeg
      {
        OFFSET -2.54253006 -6.985549927 0.0
        CHANNELS 3 Zrotation Yrotation Xrotation
        JOINT RightFoot
        {
          OFFSET -2.568259954 -7.056230068 0.0
          CHANNELS 3 Zrotation Yrotation Xrotation
          JOINT RightToeBase
          {
            OFFSET -0.164729998 -0.452589989 2.363149881
            CHANNELS 3 Zrotation Yrotation Xrotation
            End Site
            {
              OFFSET -0.0 -0.0 1.21081996
            }
          }
        }
      }
    }
  }
  JOINT LowerBack
  {
    OFFSET 0.0 0.0 0.0
    CHANNELS 3 Zrotation Yrotation Xrotation
    JOINT Spine
    {
      OFFSET 0.028270001 2.035589933 -0.193379998
      CHANNELS 3 Zrotation Yrotation Xrotation
      JOINT Spine1
      {
        OFFSET 0.05672 2.04885006 -0.042750001
        CHANNELS 3 Zrotation Yrotation Xrotation
        JOINT Neck
        {
          OFFSET 0.0 0.0 0.0
          CHANNELS 3 Zrotation Yrotation Xrotation
          JOINT Neck1
          {
            OFFSET -0.054170001 1.74624002 0.172020003
            CHANNELS 3 Zrotation Yrotation Xrotation
            JOINT Head
            {
              OFFSET 0.10407 1.761360049 -0.123970002
              CHANNELS 3 Zrotation Yrotation Xrotation
              End Site
              {
                OFFSET 0.0372 1.770439982 -0.062410001
              }
            }
          }
        }
        JOINT LeftShoulder
        {
          OFFSET 0.0 0.0 0.0
          CHANNELS 3 Zrotation Yrotation Xrotation
          JOINT LeftArm
          {
            OFFSET 3.362410069 1.200889945 -0.311210006
            CHANNELS 3 Zrotation Yrotation Xrotation
            JOINT LeftForeArm
            {
              OFFSET 4.982999802 -0.0 -0.0
              CHANNELS 3 Zrotation Yrotation Xrotation
              JOINT LeftHand
              {
                OFFSET 3.483560085 -0.0 -0.0
                CHANNELS 3 Zrotation Yrotation Xrotation
                JOINT LeftFingerBase
                {
                  OFFSET 0.0 0.0 0.0
                  CHANNELS 3 Zrotation Yrotation Xrotation
                  JOINT LeftHandIndex1
                  {
                    OFFSET 0.715260029 -0.0 -0.0
                    CHANNELS 3 Zrotation Yrotation Xrotation
                    End Site
                    {
                      OFFSET 0.576659977 -0.0 -0.0
                    }
                  }
                }
                JOINT LThumb
                {
                  OFFSET 0.0 0.0 0.0
                  CHANNELS 3 Zrotation Yrotation Xrotation
                  End Site
                  {
                    OFFSET 0.585470021 -0.0 0.585470021
                  }
                }
              }
            }
          }
        }
        JOINT RightShoulder
        {
          OFFSET 0.0 0.0 0.0
          CHANNELS 3 Zrotation Yrotation Xrotation
          JOINT RightArm
          {
            OFFSET -3.136600018 1.374050021 -0.404650003
            CHANNELS 3 Zrotation Yrotation Xrotation
            JOINT RightForeArm
            {
              OFFSET -5.241899967 -0.0 -0.0
              CHANNELS 3 Zrotation Yrotation Xrotation
              JOINT RightHand
              {
                OFFSET -3.444169998 -0.0 -0.0
                CHANNELS 3 Zrotation Yrotation Xrotation
                JOINT RightFingerBase
                {
                  OFFSET 0.0 0.0 0.0
                  CHANNELS 3 Zrotation Yrotation Xrotation
                  JOINT RightHandIndex1
                  {
                    OFFSET -0.622529984 -0.0 -0.0
                    CHANNELS 3 Zrotation Yrotation Xrotation
                    End Site
                    {
                      OFFSET -0.501900017 -0.0 -0.0
                    }
                  }
                }
                JOINT RThumb
                {
                  OFFSET 0.0 0.0 0.0
                  CHANNELS 3 Zrotation Yrotation Xrotation
                  End Site
                  {
                    OFFSET -0.509559989 -0.0 0.509559989
                  }
                }
              }
            }
          }
        }
      }
    }
  }
}
MOTION
Frames: 10
Frame Time: 0.0083333
0.0 17.261800766 0.0 -10.975297928 17.288700104 -3.552998543 0.0 -0.0 0.0 -6.737699986 -2.058700562 -29.181207657 1.73149991 8.282999992 23.576795578 0.085800394 13.637299538 -20.351596832 2.320699692 9.504301071 27.385904312 0.0 -0.0 0.0 26.721300125 -8.408899307 23.129600525 0.0 -0.0 0.0 0.135700032 -9.20459938 -10.284399986 -0.12939997 -2.318799973 6.387598038 7.579799175 3.673400402 12.040102005 2.451800346 6.156400681 -0.468600124 -2.703600407 2.790200233 -6.732800484 -1.147600055 2.147800207 -6.983098984 5.152100563 2.824700594 0.990100205 1.920300007 1.523800015 1.413100004 0.0 -0.0 0.0 -83.830505371 6.161999702 27.88809967 20.176202774 -30.854095459 -5.621397972 0.0 0.0 -1.030599952 7.351399422 -5.986899853 -0.770900011 -7.125 0.0 0.0 -14.26660347 23.955701828 7.469902992 0.0 -0.0 0.0 88.081489563 -1.588000298 6.474998474 -13.291903496 21.713405609 -2.560301781 0.0 0.0 -9.098197937 -21.180402756 -18.768102646 7.106300831 7.125 -0.0 0.0 6.95430088 -49.875091553 -0.839401782 
0.009300232 17.286800385 -0.044200182 -12.856799126 16.642799377 -3.618022919 0.0 -0.0 0.0 -3.930898666 -3.724699497 -29.233596802 1.718299747 8.25289917 23.48500061 0.063700385 14.934094429 -21.863794327 2.634899855 10.079199791 29.233499527 0.0 -0.0 0.0 29.03850174 -6.988400936 22.444099426 0.0 -0.0 0.0 0.270800084 -10.080399513 -8.149600029 -0.38410005 -3.980199814 11.021000862 9.284502029 3.645500898 14.837207794 2.668199539 6.810400486 -1.456100106 -3.803900242 2.876399994 -9.188599586 1.624100208 2.362500191 -3.869699955 2.284800529 3.127000332 -2.385900021 0.457299948 1.563100219 -0.107300021 0.0 -0.0 0.0 -83.472312927 6.69990015 27.403404236 20.916399002 -31.730596542 -6.005898952 0.0 0.0 -0.0405 6.846100807 -9.124900818 -1.090800166 -7.125 0.0 0.0 -14.342098236 20.902498245 8.548400879 0.0 -0.0 0.0 88.520004272 -1.924500108 5.951599598 -12.716300964 20.870103836 -2.351200581 0.0 0.0 -5.635098934 -19.112401962 -20.128499985 6.800300598 7.125 -0.0 0.0 9.393900871 -50.943302155 -1.385999799 
0.232301712 17.335699081 0.179999828 -9.554499626 19.279499054 -2.548005819 0.0 -0.0 0.0 -9.664000511 -1.91010046 -29.341001511 1.684699893 8.175899506 23.249700546 0.012700095 12.674900055 -18.185806274 2.270699978 9.408498764 27.081800461 0.0 -0.0 0.0 24.696998596 -8.752898216 22.862594604 0.0 -0.0 0.0 0.274700105 -10.080399513 -7.991400719 -0.436799943 -4.24090004 11.755399704 7.154200077 2.984400988 12.162799835 2.04700017 5.165199757 -0.529999971 -2.752199888 2.302400112 -6.956999302 0.705999792 2.789099932 -5.913099766 1.887900352 3.675899744 -1.406800151 0.538600147 1.862700343 0.517100036 0.0 -0.0 0.0 -84.410484314 6.400892258 27.224599838 21.463096619 -32.364891052 -6.295998096 0.0 0.0 -2.240499973 7.388702393 -8.444101334 -1.090900302 -7.125 0.0 0.0 -14.014802933 21.553100586 8.12749958 0.0 -0.0 0.0 87.757492065 -1.140399575 6.850799561 -12.032400131 19.853200912 -2.113300085 0.0 0.0 -6.248400211 -21.924692154 -16.124500275 6.378298283 7.125 -0.0 0.0 5.574602604 -47.210906982 -0.305001557 
0.333101273 17.355600357 0.27670002 -9.685601234 20.351602554 -2.588003635 0.0 -0.0 0.0 -10.314300537 -1.294499874 -29.393100739 1.65929997 8.117099762 23.070196152 -0.018000336 11.832799911 -16.589105606 2.382600546 9.621199608 27.758405685 0.0 -0.0 0.0 24.809301376 -8.659601212 21.194599152 -0.036700007 -1.236299992 3.399200201 0.266100049 -10.118199348 -8.436800003 -0.75819999 -5.561100006 15.516000748 6.961101055 2.585300207 11.865600586 2.740299702 4.590200424 0.114399999 -1.784899712 2.084800005 -6.225699425 -1.043600202 3.123099804 -7.873299122 2.168299675 4.250198841 -1.625699759 0.967000186 2.171700478 0.735899985 0.0 -0.0 0.0 -86.235107422 5.15680027 26.309604645 22.066402435 -33.052001953 -6.622004032 0.0 0.0 -2.538300514 8.417901039 -5.594399929 -0.826499939 -7.125 0.0 0.0 -13.529100418 24.326704025 6.941699982 0.0 -0.0 0.0 86.519599915 0.113000423 6.659200668 -11.868398666 19.607002258 -2.057901144 0.0 0.0 -5.798600197 -22.877401352 -15.250104904 6.333201408 7.125 -0.0 0.0 4.493599415 -46.413696289 -0.157100111 
0.440401077 17.375799179 0.389400005 -9.3793993 21.121297836 -2.759003401 0.0 -0.0 0.0 -11.299602509 -0.59340018 -29.142501831 1.679500461 8.16380024 23.21280098 -0.042800196 11.269699097 -15.408502579 2.370299816 9.598199844 27.68520546 0.0 -0.0 0.0 24.403999329 -8.406702995 19.994800568 -0.141299978 -2.422799587 6.675699234 0.319900006 -10.596099854 -7.742401123 -1.149000168 -6.806199551 19.142398834 6.49919939 2.32469964 11.756299973 3.165600061 4.16949892 0.609699965 -0.999199808 1.926000476 -5.733301163 -2.75769949 3.321599483 -9.255098343 2.605901003 4.693899632 -1.614400268 1.444800019 2.416999578 0.923699737 0.0 -0.0 0.0 -87.765197754 4.06569767 24.359601974 21.809896469 -32.761497498 -6.482697487 0.0 0.0 -0.918900073 9.34000206 -5.949200153 -0.97660023 -7.125 0.0 0.0 -12.823400497 23.963499069 6.671697617 0.0 -0.0 0.0 85.536315918 0.94639796 6.457700253 -11.503100395 19.055204391 -1.936999798 0.0 0.0 -5.015799999 -24.903991699 -14.255096436 6.521798134 7.125 -0.0 0.0 2.418800116 -45.613506317 -0.036600094 
0.548400879 17.393499374 0.508399963 -9.134399414 21.692302704 -3.057019234 0.0 -0.0 0.0 -12.098300934 0.083900578 -28.668600082 1.707700253 8.22869873 23.410900116 -0.054100305 10.790699959 -14.517700195 2.227200508 9.324099541 26.814601898 0.0 -0.0 0.0 24.059700012 -7.929100037 18.686800003 -0.354400069 -3.824800014 10.584300995 0.330000073 -10.645300865 -7.443600178 -1.663299561 -8.126296997 23.098493576 6.269500256 2.050199509 11.877599716 3.233700275 3.785299301 0.702300012 -0.744700074 1.746200085 -5.745100021 -3.165799856 3.586299181 -9.197799683 2.644800425 5.089000702 -1.797000647 1.534099936 2.617300272 0.833799899 0.0 -0.0 0.0 -88.273506165 4.155999184 23.291797638 22.042699814 -33.025302887 -6.609099865 0.0 0.0 -0.397700012 9.933197975 -5.622800827 -0.98299998 -7.125 0.0 0.0 -12.417898178 24.276594162 6.358399868 0.0 -0.0 0.0 85.403182983 0.981200576 6.02559948 -10.85529995 18.066095352 -1.730799675 0.0 0.0 -2.95630002 -19.085399628 -19.04070282 6.440100193 7.125 -0.0 0.0 9.067001343 -49.82541275 -1.086600065 
0.61920166 17.412099838 0.627500057 -9.992102623 22.095499039 -3.670014858 0.0 -0.0 0.0 -11.404800415 0.43640101 -28.219696045 1.727799773 8.27449894 23.550800323 -0.057899941 10.376502037 -13.827000618 2.141400337 9.15470314 26.28040123 0.0 -0.0 0.0 25.394897461 -6.692400455 17.784902573 -0.603999972 -4.974598885 13.836001396 0.375999957 -11.2976017 -7.733200073 -2.601300478 -10.019800186 29.040906906 6.703100681 1.905500293 12.205901146 3.385400057 3.716000319 0.405200034 -0.834399998 1.682500124 -6.234499454 -2.256200075 3.831800938 -7.983402729 2.236500025 5.314199924 -2.373900652 1.208700061 2.7129004 0.469000012 0.0 -0.0 0.0 -87.509483337 5.794700623 24.775800705 23.426202774 -34.551605225 -7.378600597 0.0 0.0 -2.306100368 10.326501846 -5.559401035 -1.011300206 -7.125 0.0 0.0 -12.134898186 24.332996368 6.1906991 0.0 -0.0 0.0 85.730400085 0.343799829 6.875499725 -10.926301956 18.175199509 -1.752900362 0.0 0.0 -3.847300053 -15.673802376 -19.742599487 5.41450119 7.125 -0.0 0.0 12.585305214 -50.000602722 -1.573403835 
0.682500839 17.42950058 0.738599777 -10.263001442 22.304800034 -4.132992268 0.0 -0.0 0.0 -11.171602249 0.618299067 -27.599403381 1.740299821 8.302900314 23.637899399 -0.053900007 10.098201752 -13.473500252 2.249800205 9.368102074 26.953603745 0.0 -0.0 0.0 26.10499382 -5.507097721 16.993597031 -0.893299997 -6.024200439 16.854598999 0.458500087 -12.132499695 -7.030100346 -3.166000366 -10.959098816 32.142097473 6.52889967 2.175400019 12.633398056 3.411199808 4.107999802 0.193000004 -0.800199926 1.860999942 -6.69299984 -1.624799848 3.89599967 -7.145500183 2.129000187 5.345099926 -2.833200693 1.038100004 2.718400478 0.203299969 0.0 -0.0 0.0 -85.830101013 8.250198364 29.131196976 26.113599777 -37.320705414 -8.956501007 0.0 0.0 -5.847200394 10.755000114 -3.9185009 -0.743700266 -7.125 0.0 0.0 -11.962599754 25.959604263 5.635500908 0.0 -0.0 0.0 86.064704895 -0.323199213 6.455200672 -10.275798798 17.169797897 -1.555399299 0.0 0.0 -3.802699804 -17.848802567 -19.264699936 6.064299583 7.125 -0.0 0.0 10.331299782 -49.859199524 -1.24940145 
0.780601501 17.452299118 0.860599995 -9.706900597 22.775806427 -4.263011456 0.0 -0.0 0.0 -12.114502907 1.146999478 -26.961204529 1.737499475 8.296599388 23.618494034 -0.026300125 9.380600929 -12.895299911 2.320300341 9.503702164 27.384004593 0.0 -0.0 0.0 25.407400131 -5.240700722 15.967500687 -1.238699913 -7.057499409 19.885799408 0.46389994 -12.07900238 -6.234101295 -3.837400198 -11.94090271 35.523204803 6.020702362 2.586400747 12.588302612 3.573200226 4.552899361 0.706199884 -0.40990001 2.12250042 -6.14539957 -3.272599697 3.156100035 -8.709700584 2.687799931 4.517500401 -2.004700184 1.532600164 2.33130002 0.700200021 0.0 -0.0 0.0 -87.483802795 5.077706337 26.999502182 23.70640564 -34.852302551 -7.538101673 0.0 0.0 -2.421400547 9.716001511 -4.535501003 -0.775700092 -7.125 0.0 0.0 -12.676399231 25.356401443 6.170701027 0.0 -0.0 0.0 85.566108704 0.326399416 4.967500687 -9.829298019 16.47209549 -1.426199913 0.0 0.0 -2.963500023 -19.472301483 -20.500297546 7.058801651 7.125 -0.0 0.0 9.166900635 -51.385398865 -1.452101588 
0.783102036 27.02519989 0.836299896 1.918500066 -3.85180068 -59.303009033 0.0 -0.0 0.0 -5.767899513 -9.992101669 -34.920398712 2.752700329 10.2835989 29.900096893 -0.0185 2.982700825 0.783400118 0.328800023 -3.685600758 -10.193799019 0.0 -0.0 0.0 10.66479969 16.206298828 -28.932098389 -1.911499977 -8.679198265 24.796798706 0.164400011 -7.980500698 0.820100009 -0.0142 0.770499945 -2.1177001 3.810600519 0.708000243 37.064907074 -0.343000025 2.215800524 13.780301094 -3.08920002 1.289199829 -2.931600094 -7.748100758 -13.025502205 12.20070076 2.796100378 -18.42420578 10.475703239 2.314400673 -9.489001274 2.444099665 0.0 -0.0 0.0 27.6860466 -74.715553284 -61.589962006 30.425907135 -41.255710602 -11.689504623 0.0 -0.0 12.173000336 -22.340101242 1.890599966 -0.776800096 -7.125 0.0 0.0 -36.361782074 29.780090332 16.794101715 0.0 -0.0 0.0 22.170200348 42.37739563 -20.717691422 -60.990406036 56.568096161 -35.166400909 0.0 -0.0 17.743299484 -10.880701065 -9.369999886 1.7924999 7.125 -0.0 0.0 13.900898933 -39.14849472 2.050701618 
